<svg xmlns="http://www.w3.org/2000/svg" viewBox="0 0 512 512" width="30" height="30" version="1"><path d="M75.5 452A15.51 15.51 0 0 0 91 436.5V121H55a55.06 55.06 0 0 0-55 55v260.5a75.45 75.45 0 0 0 30.5 60.59V497a45.05 45.05 0 0 1 45-45Z"/><path d="M457 0H176a55.06 55.06 0 0 0-55 55v381.5A45.55 45.55 0 0 1 75.5 482a15 15 0 0 0 0 30H417a95.11 95.11 0 0 0 95-95V55a55.06 55.06 0 0 0-55-55ZM206.5 141h140a15 15 0 0 1 0 30h-140a15 15 0 0 1 0-30Zm220 230h-220a15 15 0 0 1 0-30h220a15 15 0 0 1 0 30Zm0-105.88h-220a15 15 0 0 1 0-30h220a15 15 0 0 1 0 30Z"/></svg>